<svg version="1.1" id="Camada_1" xmlns="http://www.w3.org/2000/svg" xmlns:xlink="http://www.w3.org/1999/xlink" x="0px" y="0px"	 viewBox="0 0 67.7 64.6" enable-background="new 0 0 67.7 64.6" xml:space="preserve"><g>	<path d="M35.6,37c3.8,0.1,6.3,4,7.6,5.9c4.8,7.2,3.5,15.6,2.8,18.9c5.9,0.2,11.7,0.4,17.6,0.5c-0.1-14.8-0.1-24.5,0-26.5		c0-0.3,0.1-1.4-0.1-2.7c0,0-0.2-1.5-0.9-2.9c-2.3-5-8.9-11.7-8.9-11.7C53.2,18,41.6,6.3,36.9,2.9c-0.5-0.4-1.6-1.1-3-1.1		c-1.3,0-2.4,0.7-2.8,1.1C26.8,6.1,16.8,16.1,13,19.8c0,0-4.3,4.1-8.3,10.3c-0.5,0.8-0.8,1.5-1.1,2.5c-0.6,1.8-0.5,3.2-0.5,3.8		c0,7.5,0,15.1,0,22.6c0,1.2,0,1.9,0,1.9c-0.1,0.7-0.2,1,0,1.3c0.3,0.4,1,0.1,1.9,0c0,0,1,0,3,0c10.2,0,15.3,0,15.3,0		c0.4,0.1,1.4,0.5,2,0c0.9-0.7,0.4-2.6,0.3-3.3c-1-4.6-0.1-11.4,1.6-15.1C28.4,40.9,31.7,36.9,35.6,37z"/>	<g>		<g>			<path d="M31.5,3c-1.7,1.2-3.3,2.7-4.9,4.1c-1.6,1.4-3.1,2.9-4.6,4.3c-3,2.9-5.9,5.8-8.8,8.6l0,0c-2.5,2.5-4.7,5.1-6.6,7.9				c-0.5,0.7-1,1.4-1.4,2.1c-0.5,0.7-0.8,1.4-1.1,2.2c-0.6,1.5-0.8,3.1-0.7,4.8c0,6.5,0,12.8,0,18.7c0,1.5,0,2.9,0,4.4				c0,0.4,0,0.7,0,1.1c0,0.3-0.1,0.8-0.1,0.9c0,0.1,0.3,0.2,0.7,0.1c0.3,0,0.7-0.1,1-0.2c2.8,0,5.5,0,8.1,0c2.6,0,5.1,0,7.5,0				c0.6,0,1.2,0,1.8,0l0.4,0l0.2,0c0.1,0,0.1,0,0.3,0c0.3,0.1,0.5,0.2,0.8,0.2c0.5,0.1,1-0.1,1.2-0.5c0.2-0.4,0.2-1,0.1-1.5				c-0.1-1-0.4-2.1-0.5-3.2c-0.1-1-0.1-2.1-0.1-3.1c0.1-2,0.3-3.8,0.6-5.5c0.3-1.7,0.8-3.2,1.4-4.6c0.6-1.3,1.4-2.5,2.2-3.4				c1.6-1.8,3.3-2.8,4.5-3.1c0.3-0.1,0.6-0.2,0.8-0.2c0.2,0,0.4-0.1,0.6-0.1c0.3,0,0.5,0,0.5,0c0,0-0.7,0-1.9,0.3				c-1.2,0.4-2.8,1.3-4.4,3.2c-0.8,0.9-1.5,2-2.1,3.3c-0.6,1.3-1.1,2.9-1.4,4.6c-0.6,3.4-1,7.3,0.1,11.6c0.1,0.6,0.1,1.2-0.2,1.7				c-0.1,0.3-0.4,0.6-0.7,0.7c-0.3,0.1-0.6,0.1-0.9,0.1c-0.3,0-0.6-0.1-0.9-0.2l-0.8,0c-0.6,0-1.2,0-1.8,0c-2.4,0-4.9,0-7.5,0				c-2.6,0-5.3,0-8,0c-0.3,0-0.7,0.1-1,0.2c-0.2,0-0.4,0-0.6,0c-0.2,0-0.5-0.2-0.6-0.4c-0.1-0.3,0-0.5,0-0.7L2.8,61				c0-0.3,0-0.7,0-1.1c0-1.4,0-2.9,0-4.4c0-5.9,0-12.2,0-18.7c-0.1-1.6,0.2-3.4,0.7-4.9c0.3-0.8,0.7-1.6,1.1-2.3				c0.5-0.7,0.9-1.4,1.4-2.1c2-2.8,4.2-5.5,6.6-7.9l0,0c2.9-2.8,5.8-5.7,8.8-8.6c1.5-1.5,3-2.9,4.6-4.3c1.6-1.4,3.2-2.9,4.9-4.1				c1.1-0.7,2.5-1.2,3.8-0.9c0.6,0.1,1.3,0.4,1.8,0.8c0.5,0.4,1,0.7,1.5,1.1c1.9,1.5,3.7,3.2,5.5,4.8c3.5,3.3,6.9,6.6,10.2,9.9l0,0				c2.1,2.2,4.1,4.5,5.9,6.9c0.9,1.2,1.7,2.4,2.4,3.7c0.3,0.6,0.7,1.3,0.9,2c0.3,0.7,0.4,1.3,0.6,2.2l0,0c0.1,0.7,0.2,1.3,0.1,2				c0,0.7-0.1,1.3-0.1,2c0,1.3-0.1,2.6-0.1,3.9c0,2.5,0,5,0,7.5c0,5,0,9.7,0.1,14.2c-3.7-0.1-7.2-0.2-10.5-0.3				c-1.6-0.1-3.2-0.1-4.8-0.2C47.7,62,47,62,46.2,62l-0.5,0c0-0.1,0-0.3,0.1-0.4l0.1-0.6c0.1-0.4,0.1-0.7,0.2-1.1				c0.9-5.7,0.1-10.8-1.7-14.5c-1.8-3.6-3.9-6.2-5.8-7.3c-1.9-1.1-3.1-1-3.1-1c0,0,0.3,0,0.8,0.1c0.6,0.1,1.4,0.3,2.3,0.9				c1.9,1.1,4.1,3.7,5.9,7.3c1.8,3.7,2.7,8.9,1.8,14.6c-0.1,0.4-0.1,0.7-0.2,1.1l-0.1,0.5c0,0,0,0.1,0,0.1l0.1,0				c0.7,0,1.5,0,2.2,0.1c1.5,0,3.1,0.1,4.8,0.1c3.2,0.1,6.5,0.2,10,0.3c0-4.3-0.1-8.9-0.1-13.7c0-2.4,0-4.9,0-7.5				c0-1.3,0-2.6,0.1-3.9c0-0.6,0.1-1.3,0.1-2c0-0.6,0-1.3-0.1-1.9l0.3,0c-0.4,0-0.2,0-0.3,0l0,0l0,0l0,0l0,0l0-0.1l0-0.1l-0.1-0.3				L63,32.1c-0.1-0.3-0.2-0.7-0.3-1c-0.2-0.7-0.6-1.3-0.9-1.9c-0.7-1.3-1.5-2.5-2.4-3.6c-1.8-2.4-3.7-4.6-5.9-6.8l0,0				c-3.3-3.3-6.6-6.6-10.2-9.9c-1.8-1.6-3.6-3.3-5.5-4.8c-1-0.7-1.9-1.5-3-1.8C33.7,2,32.5,2.3,31.5,3z"/>		</g>	</g></g></svg>