<svg version="1.1" xmlns="http://www.w3.org/2000/svg" xmlns:xlink="http://www.w3.org/1999/xlink" x="0px" y="0px"
	 viewBox="0 0 100 100" enable-background="new 0 0 100 100" xml:space="preserve">
<g id="Back" display="none">
	<g display="inline">
		<g>
			<g>
				<path d="M5,51.3c0.1-2.5,0.9-5,2-6.9c1.1-1.9,2.5-3.5,3.9-4.8c2.8-2.5,5.8-4.3,8.6-5.8c2.8-1.5,5.5-2.8,8.2-4
					c2.7-1.3,5.3-2.4,7.8-3.6c10.2-4.5,19.7-8.1,27.7-10.9C79.3,9.9,89.6,7.8,90,9c0.5,1.3-9,5.8-24.1,12.9
					c-7.6,3.5-16.6,7.7-26.4,12.7c-2.5,1.2-5,2.5-7.5,3.8c-2.6,1.3-5.2,2.7-7.7,4c-2.5,1.4-4.8,2.9-6.6,4.5
					c-0.9,0.8-1.6,1.7-2.1,2.5c-0.5,0.8-0.6,1.5-0.7,2.1c0,0.3,0,0.6,0.1,0.9c0.1,0.4,0.3,0.8,0.5,1.2c0.5,0.9,1.2,1.9,2.1,2.8
					c1.7,1.9,3.9,3.8,6.1,5.5c2.2,1.7,4.6,3.3,7,4.8c2.4,1.5,4.7,2.9,7.1,4.1c9.4,5.1,18.5,8.5,26.4,11.1C72,84.4,78.5,86,83,87.2
					c4.5,1.2,7,2.1,7,2.8c-0.1,0.7-2.7,1.1-7.5,1.1c-4.8,0-11.7-0.6-20.1-2.4C54,86.9,44,84,33.6,79c-2.6-1.2-5.2-2.6-7.8-4.2
					c-2.6-1.5-5.2-3.2-7.8-5.1c-2.6-1.9-5.2-4-7.7-6.7c-1.2-1.3-2.4-2.9-3.5-4.8c-0.5-0.9-1-2-1.3-3.2C5.2,53.9,5,52.6,5,51.3z"/>
			</g>
		</g>
	</g>
</g>
<g id="Front" display="none">
	<g display="inline">
		<g>
			<g>
				<path d="M87,51.5c-0.1-0.7-0.2-1.4-0.7-2.1c-0.5-0.8-1.1-1.6-2.1-2.5c-1.8-1.7-4.1-3.2-6.6-4.5c-2.5-1.4-5.1-2.7-7.7-4
					c-2.6-1.3-5.1-2.6-7.5-3.8c-9.8-4.9-18.8-9.1-26.4-12.7C20.9,14.8,11.5,10.3,12,9c0.4-1.2,10.7,0.9,26.7,6.4
					c8,2.8,17.4,6.3,27.7,10.9c2.6,1.1,5.2,2.3,7.8,3.6c2.7,1.3,5.3,2.5,8.2,4c2.8,1.5,5.8,3.2,8.6,5.8c1.4,1.3,2.8,2.8,3.9,4.8
					c1.2,1.9,1.9,4.4,2,6.9c0,1.3-0.2,2.6-0.5,3.8c-0.3,1.2-0.8,2.2-1.3,3.2c-1,1.9-2.2,3.4-3.5,4.8c-2.5,2.7-5.1,4.8-7.7,6.7
					c-2.6,1.9-5.2,3.5-7.8,5.1c-2.6,1.5-5.2,2.9-7.8,4.2C58,84,48,86.9,39.6,88.7c-8.4,1.7-15.3,2.3-20.1,2.4
					c-4.8,0-7.4-0.4-7.5-1.1c-0.1-0.7,2.5-1.6,7-2.8c4.5-1.2,11-2.8,18.9-5.3c7.8-2.5,16.9-6,26.4-11.1c2.4-1.3,4.7-2.6,7.1-4.1
					c2.4-1.5,4.7-3.1,7-4.8c2.2-1.7,4.4-3.5,6.1-5.5c0.9-1,1.6-1.9,2.1-2.8c0.2-0.4,0.4-0.9,0.5-1.2C87,52.1,87,51.8,87,51.5z"/>
			</g>
		</g>
	</g>
</g>
<g id="Home" display="none">
	<path display="inline" fill="#FAC9A2" d="M20.2,35.9c0.6-0.9,1.4-1.7,2.2-2.4c3.1-2.7,6.2-5.4,9.3-8.1c7.4-6.5,16.2-13.3,25.2-10.8
		c4.2,1.2,7.7,4.2,11.2,7.2c4.8,4.1,9.7,8.5,12.4,14.7c4.2,10,1.5,21.9-1.2,32.5c-0.7,2.7-1.4,5.5-2.8,7.9c-2.4,4.3-6.6,7-10.8,8.1
		c-3.6,1-4.8,0.7-13.1,0.9c-13.8,0.2-15.9,1.7-20-0.8c-3.3-2-5.2-4.8-7.8-8.8c-1.8-2.6-4.8-7.3-6.6-14.3
		C17.7,60.8,14.4,45,20.2,35.9z"/>
	<path display="inline" fill="#CCA892" d="M78.6,74.8c5-10.5,6.1-23.5,2.9-35c-0.8-2.7-1.8-5.3-3.3-7.5c-1.3-1.9-2.9-3.3-4.5-4.8
		c-3.3-3-6.5-6-9.8-9c1.2,12.5-5.1,24.1-12,33.7S36.9,70.7,33.4,82.5c0.2-0.9,21.4,3.2,24.4,3.9C67.1,88.6,73.9,84.5,78.6,74.8z"/>
	<g display="inline">
		<g>
			<g>
				<path fill="#0C0C0C" d="M50.7,90.2c-4.6,0-9.4,0-14.2-1.1c-2.4-0.6-4.8-1.4-6.9-2.7c-2.2-1.2-4-2.9-5.5-4.6
					c-3-3.5-4.8-7.4-5.9-11.1c-1.1-3.7-1.6-7.2-1.8-10.3c-0.1-1.6-0.1-3.1-0.1-4.5c0.1-1.4,0.1-2.7,0.2-4c0.1-1.2,0.3-2.4,0.4-3.4
					c0.2-1,0.3-2,0.6-2.8c0.2-0.8,0.4-1.6,0.6-2.2c0.2-0.6,0.4-1.2,0.6-1.6c0.4-0.8,0.7-1.3,0.9-1.2s0.4,0.5,0.5,1.5
					c0.1,0.5,0.1,1,0.1,1.7c0,0.6,0.1,1.4,0.1,2.2c0,0.8,0.1,1.8,0.1,2.8c0,1,0.1,2.1,0.2,3.3c0,1.2,0.2,2.4,0.3,3.7
					c0.2,1.3,0.3,2.7,0.6,4.1c0.5,2.8,1.2,5.9,2.4,8.9c1.2,3,2.9,6,5.2,8.5c2.4,2.4,5.3,4.1,9,4.8c3.7,0.8,8,0.8,12.6,0.8
					c4.6,0,9,0.1,12.8-0.5c1.9-0.3,3.6-0.8,5.1-1.5c1.5-0.7,2.8-1.7,4-2.9c2.4-2.3,4-5.3,5.1-8.3c1.2-3,1.9-6.1,2.4-8.9
					c1-5.7,1.2-10.5,1.4-13.8c0.2-3.3,0.4-5.2,0.9-5.3c0.5-0.1,1.3,1.7,2,5.1c0.7,3.4,1.3,8.4,0.9,14.7c-0.2,3.1-0.7,6.6-1.7,10.3
					c-1.1,3.7-2.8,7.6-6,11.1C76,84.4,74,86,71.8,87.2c-2.2,1.2-4.7,1.9-7.1,2.3C59.9,90.3,55.3,90.2,50.7,90.2z"/>
			</g>
		</g>
	</g>
	<g display="inline">
		<g>
			<g>
				<path fill="#0C0C0C" d="M50.3,16.7c-1.3,0.1-2.7,0.6-4.3,1.5c-1.5,0.8-3.1,1.9-4.6,3c-3,2.2-5.9,4.6-8.6,6.9
					c-5.5,4.6-10.4,8.7-14.6,12.2C10,47.2,4.8,51.5,4,50.8c-0.7-0.7,3.2-6.3,10.6-14.4c3.7-4,8.4-8.6,13.7-13.5
					c2.7-2.5,5.5-5,8.7-7.5c1.6-1.3,3.3-2.5,5.4-3.6c2-1.1,4.4-2.2,7.3-2.4c2.7-0.2,5.3,0.3,7.5,1.1c2.3,0.8,4.2,1.9,6,3.1
					c3.5,2.3,6.5,4.9,9.2,7.3c2.7,2.4,5.2,4.8,7.5,7.1c2.3,2.2,4.4,4.3,6.3,6.4c7.6,8,11.4,13.7,10.6,14.4
					c-0.8,0.7-5.9-3.7-14.2-10.5c-4.2-3.4-9.2-7.5-14.7-12c-2.8-2.2-5.7-4.5-8.7-6.4C56.4,17.9,53.2,16.5,50.3,16.7z"/>
			</g>
		</g>
	</g>
	<path display="inline" fill="none" stroke="#333333" stroke-width="12" stroke-miterlimit="10" d="M66,77.7"/>
</g>
<g id="Categories" display="none">
	<g display="inline">
		<path fill="#ECD5E3" d="M33,46H21c-6.6,0-12-5.4-12-12V23c0-6.6,5.4-12,12-12h12c6.6,0,12,5.4,12,12v11C45,40.6,39.6,46,33,46z"/>
		<g>
			<g>
				<path d="M21,8.5c4.2,0,8.2,0,12.3,0.1c2.4,0.1,4.7,0.7,6.7,1.8c2,1.1,3.6,2.7,4.8,4.5c1.2,1.8,1.9,3.8,2.2,5.8
					c0.1,0.5,0.1,1,0.1,1.5l0,0.7l0,0.6c0,0.8,0,1.7-0.1,2.5c0,1.6-0.1,3.2-0.1,4.7c0,0.7-0.1,1.5-0.1,2.2c0,0.4,0,0.7,0,1.1
					c0,0.4-0.1,0.8-0.1,1.2c-0.4,3.1-1.8,5.7-3.5,7.5c-1.7,1.8-3.6,2.8-5.1,3.3c-3.2,1-5,0.3-5,0.1c0-0.4,1.7-0.5,4.3-1.8
					c1.2-0.7,2.6-1.8,3.8-3.3c1.2-1.5,2-3.6,2.1-6c0-0.3,0-0.6,0-0.9c0-0.4,0-0.7,0-1.1c0-0.7-0.1-1.5-0.1-2.2
					c0-1.5-0.1-3.1-0.1-4.7c0-0.8,0-1.6-0.1-2.5l0-0.6l0-0.5c0-0.3-0.1-0.7-0.1-1c-0.3-1.4-0.8-2.7-1.7-3.9c-0.9-1.2-2-2.2-3.4-2.9
					c-1.3-0.7-2.9-1.1-4.5-1.1c-3.9,0-8,0-12.2,0c-3.3,0-6.5,1.8-8.1,4.5c-0.8,1.3-1.4,2.8-1.5,4.4l0,0.6l0,0.7c0,0.5,0,0.9,0,1.4
					c0,0.9,0,1.8,0,2.8c0,1.8-0.1,3.6-0.1,5.3c0,0.9,0,1.6,0,2.2c0.1,0.7,0.2,1.3,0.4,2c0.8,2.6,2.6,4.6,4.6,5.8
					c1,0.6,2.1,1,3.1,1.2c0.5,0.1,1,0.2,1.6,0.2c0.6,0,1.1,0.1,1.7,0.1c2.2,0.1,4.1,0.3,5.6,0.4c3.1,0.3,4.8,0.6,4.8,1
					s-1.7,0.7-4.8,1c-1.5,0.1-3.4,0.3-5.6,0.4c-0.5,0-1.1,0.1-1.7,0.1c-0.7,0-1.3,0-2-0.1c-1.4-0.2-2.9-0.5-4.3-1.2
					c-2.8-1.4-5.5-3.9-6.9-7.5c-0.3-0.9-0.6-1.8-0.7-2.8c-0.2-1-0.2-2-0.2-2.8c0-1.7-0.1-3.5-0.1-5.3c0-0.9,0-1.8,0-2.8
					c0-0.5,0-0.9,0-1.4l0-0.7l0-0.8c0.1-2.3,0.8-4.6,2.1-6.6c1.2-2,3-3.8,5.1-5C16,9.2,18.5,8.6,21,8.5z"/>
			</g>
		</g>
	</g>
	<g display="inline">
		<path fill="#ECD5E3" d="M79,45H67c-6.6,0-12-5.4-12-12V23c0-6.6,5.4-12,12-12h12c6.6,0,12,5.4,12,12v10C91,39.6,85.6,45,79,45z"/>
		<g>
			<g>
				<path d="M67,8.5c4.1,0,8.1,0,12,0.1c2.3,0,4.6,0.6,6.6,1.7c2,1,3.6,2.6,4.9,4.3c1.2,1.7,2.1,3.7,2.4,5.6c0.1,0.5,0.1,1,0.2,1.5
					c0,0.5,0,1,0,1.4c0,0.8,0,1.6-0.1,2.4c0,1.6-0.1,3.1-0.1,4.6c-0.1,1.5,0,2.8-0.3,4.4c-0.5,3.1-1.9,5.6-3.6,7.3
					c-1.7,1.7-3.5,2.7-5.1,3.2c-3.2,0.9-5,0.3-4.9,0c0-0.4,1.7-0.5,4.2-1.8c1.2-0.7,2.6-1.7,3.8-3.2c1.2-1.5,2.1-3.5,2.2-5.8
					c0.1-1.1,0-2.6-0.1-4c0-1.5-0.1-3-0.1-4.6c0-0.8,0-1.6-0.1-2.4c0-0.3-0.1-0.7-0.1-1c0-0.3-0.1-0.7-0.2-1
					c-0.3-1.3-0.9-2.7-1.8-3.8c-1.7-2.3-4.7-3.9-7.8-3.8c-3.9,0-7.9,0-12,0c-1.6,0-3.2,0.4-4.6,1.2c-1.4,0.8-2.6,1.9-3.4,3.2
					c-0.8,1.3-1.4,2.8-1.5,4.3l0,0.6c0,0.2,0,0.4,0,0.6c0,0.5,0,0.9,0,1.4c0,0.9,0,1.8,0,2.7c0,1.8-0.1,3.5-0.1,5.2
					c0,0.5,0,0.7,0,1.1c0,0.3,0.1,0.7,0.1,1c0.1,0.7,0.3,1.3,0.5,1.9c0.9,2.5,2.7,4.4,4.7,5.5c1,0.6,2.1,1,3.1,1.1
					c0.5,0.1,1,0.1,1.6,0.2c0.6,0,1.1,0.1,1.7,0.1c2.1,0.1,4,0.3,5.5,0.4c3,0.3,4.7,0.6,4.7,1s-1.7,0.7-4.7,1
					c-1.5,0.1-3.4,0.3-5.5,0.4c-0.5,0-1.1,0.1-1.7,0.1c-0.6,0-1.3,0-2,0c-1.4-0.1-2.8-0.5-4.2-1.1c-2.8-1.3-5.5-3.7-7-7.1
					c-0.4-0.9-0.7-1.8-0.8-2.7c-0.1-0.5-0.2-1-0.2-1.4c0-0.5-0.1-1-0.1-1.4c0-1.7-0.1-3.4-0.1-5.2c0-0.9,0-1.8,0-2.7
					c0-0.5,0-0.9,0-1.4c0-0.4,0-1.1,0-1.6c0.2-2.2,0.9-4.5,2.2-6.4c1.2-2,3-3.7,5.1-4.9C62.1,9.2,64.5,8.5,67,8.5z"/>
			</g>
		</g>
	</g>
	<g display="inline">
		<path fill="#ECD5E3" d="M33,91H21c-6.6,0-12-5.4-12-12V68c0-6.6,5.4-12,12-12h12c6.6,0,12,5.4,12,12v11C45,85.6,39.6,91,33,91z"/>
		<g>
			<g>
				<path d="M21,53.5c4.2,0,8.2,0,12.3,0.1c2.4,0.1,4.7,0.7,6.7,1.8c2,1.1,3.6,2.7,4.8,4.5c1.2,1.8,1.9,3.8,2.2,5.8
					c0.1,0.5,0.1,1,0.1,1.5l0,0.7l0,0.6c0,0.8,0,1.7-0.1,2.5c0,1.6-0.1,3.2-0.1,4.7c0,0.7-0.1,1.5-0.1,2.2c0,0.4,0,0.7,0,1.1
					c0,0.4-0.1,0.8-0.1,1.2c-0.4,3.1-1.8,5.7-3.5,7.5c-1.7,1.8-3.6,2.8-5.1,3.3c-3.2,1-5,0.3-5,0.1c0-0.4,1.7-0.5,4.3-1.8
					c1.2-0.7,2.6-1.8,3.8-3.3c1.2-1.5,2-3.6,2.1-6c0-0.3,0-0.6,0-0.9c0-0.4,0-0.7,0-1.1c0-0.7-0.1-1.5-0.1-2.2
					c0-1.5-0.1-3.1-0.1-4.7c0-0.8,0-1.6-0.1-2.5l0-0.6l0-0.5c0-0.3-0.1-0.7-0.1-1c-0.3-1.4-0.8-2.7-1.7-3.9c-0.9-1.2-2-2.2-3.4-2.9
					c-1.3-0.7-2.9-1.1-4.5-1.1c-3.9,0-8,0-12.2,0c-3.3,0-6.5,1.8-8.1,4.5c-0.8,1.3-1.4,2.8-1.5,4.4l0,0.6l0,0.7c0,0.5,0,0.9,0,1.4
					c0,0.9,0,1.8,0,2.8c0,1.8-0.1,3.6-0.1,5.3c0,0.9,0,1.6,0,2.2c0.1,0.7,0.2,1.3,0.4,2c0.8,2.6,2.6,4.6,4.6,5.8
					c1,0.6,2.1,1,3.1,1.2c0.5,0.1,1,0.2,1.6,0.2c0.6,0,1.1,0.1,1.7,0.1c2.2,0.1,4.1,0.3,5.6,0.4c3.1,0.3,4.8,0.6,4.8,1
					s-1.7,0.7-4.8,1c-1.5,0.1-3.4,0.3-5.6,0.4c-0.5,0-1.1,0.1-1.7,0.1c-0.7,0-1.3,0-2-0.1c-1.4-0.2-2.9-0.5-4.3-1.2
					c-2.8-1.4-5.5-3.9-6.9-7.5c-0.3-0.9-0.6-1.8-0.7-2.8c-0.2-1-0.2-2-0.2-2.8c0-1.7-0.1-3.5-0.1-5.3c0-0.9,0-1.8,0-2.8
					c0-0.5,0-0.9,0-1.4l0-0.7l0-0.8c0.1-2.3,0.8-4.6,2.1-6.6c1.2-2,3-3.8,5.1-5C16,54.2,18.5,53.6,21,53.5z"/>
			</g>
		</g>
	</g>
	<g display="inline">
		<path fill="#ECD5E3" d="M79,90H67c-6.6,0-12-5.4-12-12V68c0-6.6,5.4-12,12-12h12c6.6,0,12,5.4,12,12v10C91,84.6,85.6,90,79,90z"/>
		<g>
			<g>
				<path d="M67,53.5c4.1,0,8.1,0,12,0.1c2.3,0,4.6,0.6,6.6,1.7c2,1,3.6,2.6,4.9,4.3c1.2,1.7,2.1,3.7,2.4,5.6c0.1,0.5,0.1,1,0.2,1.5
					c0,0.5,0,1,0,1.4c0,0.8,0,1.6-0.1,2.4c0,1.6-0.1,3.1-0.1,4.6c-0.1,1.5,0,2.8-0.3,4.4c-0.5,3.1-1.9,5.6-3.6,7.3
					c-1.7,1.7-3.5,2.7-5.1,3.2c-3.2,0.9-5,0.3-4.9,0c0-0.4,1.7-0.5,4.2-1.8c1.2-0.7,2.6-1.7,3.8-3.2c1.2-1.5,2.1-3.5,2.2-5.8
					c0.1-1.1,0-2.6-0.1-4c0-1.5-0.1-3-0.1-4.6c0-0.8,0-1.6-0.1-2.4c0-0.3-0.1-0.7-0.1-1c0-0.3-0.1-0.7-0.2-1
					c-0.3-1.3-0.9-2.7-1.8-3.8c-1.7-2.3-4.7-3.9-7.8-3.8c-3.9,0-7.9,0-12,0c-1.6,0-3.2,0.4-4.6,1.2c-1.4,0.8-2.6,1.9-3.4,3.2
					c-0.8,1.3-1.4,2.8-1.5,4.3l0,0.6c0,0.2,0,0.4,0,0.6c0,0.5,0,0.9,0,1.4c0,0.9,0,1.8,0,2.7c0,1.8-0.1,3.5-0.1,5.2
					c0,0.5,0,0.7,0,1.1c0,0.3,0.1,0.7,0.1,1c0.1,0.7,0.3,1.3,0.5,1.9c0.9,2.5,2.7,4.4,4.7,5.5c1,0.6,2.1,1,3.1,1.1
					c0.5,0.1,1,0.1,1.6,0.2c0.6,0,1.1,0.1,1.7,0.1c2.1,0.1,4,0.3,5.5,0.4c3,0.3,4.7,0.6,4.7,1s-1.7,0.7-4.7,1
					c-1.5,0.1-3.4,0.3-5.5,0.4c-0.5,0-1.1,0.1-1.7,0.1c-0.6,0-1.3,0-2,0c-1.4-0.1-2.8-0.5-4.2-1.1c-2.8-1.3-5.5-3.7-7-7.1
					c-0.4-0.9-0.7-1.8-0.8-2.7c-0.1-0.5-0.2-1-0.2-1.4c0-0.5-0.1-1-0.1-1.4c0-1.7-0.1-3.4-0.1-5.2c0-0.9,0-1.8,0-2.7
					c0-0.5,0-0.9,0-1.4c0-0.4,0-1.1,0-1.6c0.2-2.2,0.9-4.5,2.2-6.4c1.2-2,3-3.7,5.1-4.9C62.1,54.2,64.5,53.5,67,53.5z"/>
			</g>
		</g>
	</g>
</g>
<g id="Star" display="none">
	<path display="inline" fill="#E2DAAC" d="M37.1,72.1c1.3-0.5,2.5-0.9,3.7-1.5c1.5-0.7,2.8-1.7,4.1-2.8c6-4.9,11.1-11,15-17.6
		c1.1-1.9,2-3.8,3.2-5.6c0.4-0.5,0.7-1.1,1.2-1.4c0.6-0.4,1.3-0.6,1.9-0.8c7.5-1.7,15.2,2.1,22.9,1.9c-0.3,2.2-2.4,3.5-4,5
		c-2.8,2.6-4.4,6.4-7.6,8.5c-1.5,1-3.3,1.5-4.6,2.9c-1.4,1.5-1.8,3.7-1.8,5.8c0,3.6,0.7,7.1,1.4,10.6c0.3,1.7,0.7,3.3,1,5
		c0.5,2.6,1.1,5.3,1.6,7.9c-1.5,0.3-2.9-0.9-4.1-1.9c-5.1-4.1-12.2-5.1-17.4-9c-0.8-0.6-1.6-1.3-2.5-1.5c-2.1-0.6-4.1,1-6.1,1.9
		c-1.9,0.8-4,1-5.7,1.9c-1.6,0.8-2.8,2.2-4.2,3.3c-2.5,2-5.5,3.4-8.4,4.7c-0.6,0.3-1.4,0.4-1.6-0.2c-0.1-0.2,0-0.4,0-0.6
		c0.9-3.6,1.3-8.4,3.2-11.6c0.6-1,1.6-1.7,2.7-2.3C32.5,74,35.3,72.1,37.1,72.1z"/>
	<path display="inline" fill="none" d="M77.8,66.6c-1.8-0.8-3.6-1.5-5.4-2.1"/>
	<path display="inline" fill="#FAF4B6" d="M28.6,63.4c-0.6-2.1-2-3.9-3.4-5.6c-0.4-0.5-0.8-0.9-1.3-1.3c-0.6-0.4-1.4-0.5-2.1-0.7
		c-5-1.5-7.9-6.5-9.9-11.2c2.2-0.7,4.5-0.8,6.8-1c5.4-0.6,10.7-2,16-3.5c1.4-0.4,2.8-0.8,3.9-1.8c0.7-0.7,1.1-1.5,1.6-2.4
		c2.9-5.8,5.8-11.6,8.7-17.5c0.4-0.9,1.1-1.9,2-1.9c1.2,0,1.8,1.5,2.2,2.6c1.5,4.4,5.2,7.8,7,12.1c0.6,1.4,0.9,2.9,1.5,4.3
		c1,2.3,2.6,4.4,3.4,6.8c1,2.8,0.8,6-0.5,8.7c-0.8,1.7-2.1,3.1-3.3,4.6c-3.6,4.3-7.3,8.6-11.6,12.2c-3.5,2.9-21,15.4-21.2,4.7
		C28.2,69.5,29.4,66.5,28.6,63.4z"/>
	<g display="inline">
		<g>
			<g>
				<path fill="#070706" d="M36.7,37.5L36.7,37.5c5-9.5,9.9-18.8,14.6-27.8c2.8,5.8,5.6,11.6,8.4,17.2c1.8,3.8,3.7,7.6,5.4,11.2
					c11.1,1.8,21.5,3.5,31,5.1c-3,2.7-6,5.4-8.8,8c-1.9,1.7-3.7,3.3-5.5,4.9c-1.8,1.6-3.5,3.1-5.1,4.5c-0.8,0.7-1.6,1.4-2.4,2.1
					c-0.4,0.3-0.8,0.7-1.2,1c-0.2,0.2-0.4,0.3-0.6,0.5c0.5,4,1,7.7,1.4,10.8c0.4,3.4,0.8,6.3,1.1,8.7c0.5,4.7,0.7,7.3,0.4,7.4
					c-0.3,0-1-2.5-2-7.1c-0.5-2.3-1.1-5.2-1.8-8.6c-0.3-1.7-0.7-3.5-1.1-5.4c-0.2-1-0.4-2-0.6-3c-0.2-1.3-0.5-2.6-0.7-3.9
					c3.1-2.9,6.4-6.2,10-9.6c1.7-1.6,3.5-3.3,5.3-5.1c0.5-0.4,0.9-0.9,1.4-1.3l0.6-0.6l0.1-0.2c0.2-0.2,0.4-0.4,0.5-0.6
					c-0.2,0-0.5,0-0.7-0.1l-0.3,0c-0.5-0.1-1.1-0.1-1.6-0.2c-2.3-0.3-4.6-0.7-6.9-1c-5.1-0.7-10.4-1.5-15.8-2.3
					c-3.4-6.9-7.1-14.2-10.9-21.8l0,0.1l0,0l0,0l-0.1,0.2l-0.8,1.5c-1.1,2-2.1,4.1-3.2,6.2c-2.4,4.5-4.7,9.1-7.2,13.7
					c-0.3,0-0.6,0.1-0.9,0.1c-5.1,0.6-10,1.3-15,1.9c-2.3,0.3-4.6,0.6-6.9,0.9l-1.7,0.2c0,0,0,0,0,0l-0.1,0l0,0.1l0,0l0,0l0.3,0.2
					l1.3,1.3c1.7,1.7,3.4,3.4,5.1,5c3.6,3.6,7.2,7.1,10.7,10.5c-1,5.3-2.1,10.4-3,15.3c-0.5,2.3-0.9,4.5-1.3,6.7
					c-0.1,0.5-0.2,1-0.3,1.6l-0.1,0.3c-0.1,0.2-0.1,0.4-0.2,0.7c0.2-0.1,0.5-0.2,0.7-0.3l0.2-0.1l0.9-0.4c0.6-0.3,1.2-0.6,1.7-0.8
					c2.3-1.1,4.5-2.1,6.7-3.2c4.5-2.1,8.8-4.1,12.6-6c1.2,0.7,2.4,1.3,3.5,1.9c0.9,0.5,1.8,1,2.7,1.5c1.7,1,3.4,1.9,4.9,2.8
					c3,1.7,5.6,3.2,7.7,4.5c4.2,2.5,6.4,4,6.3,4.2c-0.1,0.2-2.6-0.7-7-2.8c-2.2-1-4.9-2.3-8.1-3.8c-2.9-1.4-6.3-3.1-10.1-4.9
					l-0.3,0.2l-0.4,0.2c-0.5,0.2-0.9,0.5-1.4,0.7c-0.9,0.5-1.9,1-2.9,1.5c-2,1-4,2.1-6.1,3.2c-2.1,1.1-4.3,2.2-6.5,3.4
					c-3.4,1.7-6.9,3.5-10.6,5.4c1.7-9.3,3.5-19.4,5.4-30.1c-2.9-2.8-6-5.7-9.1-8.7c-4.6-4.4-9.2-8.9-14-13.5
					C15,40.3,25.8,38.9,36.7,37.5z"/>
			</g>
		</g>
	</g>
</g>
<g id="Message" display="none">
	<path display="inline" fill="none" stroke="#D8817D" stroke-width="8" stroke-miterlimit="10" d="M95,36.7"/>
	<path display="inline" fill="#CCE2CA" d="M62.6,85.9c-3,1.9-6.3,2.7-9.7,3.5c-2.3,0.5-4.5,1-6.9,1.2c-9.6,1.1-19.7-1.7-27.4-8
		C11,76.3,5.8,66.5,5.2,56.2c-0.3-4.3,0.2-8.6,1-12.8c0.6-3,1.3-5.9,2.5-8.7c3.5-8,10.9-13.1,17.9-17.7c2.8-1.8,5.6-3.6,8.7-4.3
		c1.8-0.4,3.6-0.6,5.4-0.7c3.9-0.2,7.8-0.4,11.7,0.3c4.8,0.9,9.3,3.3,13.6,5.7c1.9,1.1,4,2.2,5.4,4c1.2,1.5,1.8,3.4,2.5,5.3
		c1.1,3.3,2.3,6.6,3.2,10c2.8,9.8,4.1,20.6,10.5,28.3c1.2,1.4,2.5,3.4,1.6,4.9c-0.7,1-2.1,1.2-3.2,1.2c-5.2,0.3-10.4,1.8-15,4.4
		c-2.3,1.2-2.2,2.4-3.3,4.6C66.4,82.9,64.6,84.7,62.6,85.9z"/>
	<path display="inline" fill="#ADBAAD" d="M43.7,82.5c5.2-6.6,9.7-13.8,12.9-21.8s4.7-16.6,3.9-25.2c-0.2-2.4-0.6-4.8-1-7.3
		c-0.5-3.5-1-7.1-1.3-10.6c0-0.5-0.1-1,0.2-1.4c0.2-0.3,0.6-0.5,1-0.6c2.4-0.8,5,0.6,6.8,2.4c1.8,1.8,3.2,4.2,5,6
		c1,1,2.1,1.9,2.8,3.1c0.6,1.1,0.9,2.4,1.2,3.6c1.3,5.8,2.5,11.7,3.8,17.5c0.8,3.9,1.7,7.9,4,11c1.3,1.8,3.1,3.3,4.5,5
		c1.5,1.7,2.7,3.9,2.6,6.2c0,0.2,0,0.5-0.2,0.6c-0.2,0.2-0.5,0.3-0.7,0.3c-2.2,0.2-4.5-0.3-6.7-0.1c-4.6,0.3-8.8,3.1-12.2,6.5
		c-1.5,1.6-2.9,3.3-4.5,4.7c-5.2,4.7-12,6.5-18.6,8.1c-1.4,0.3-2.9,0.6-4-0.2c-0.6-0.4-1.1-1.1-1.6-1.6c-0.8-0.7-1.9-0.4-2.7-0.9
		C40.5,86.2,42.2,84.5,43.7,82.5z"/>
	<g display="inline">
		<g>
			<g>
				<path fill="#311D1C" d="M46,88.3c4.3-0.1,8.5-0.8,12.2-2.5c3.7-1.6,6.9-4.2,8.8-7.3c0.5-0.8,1-1.7,1.6-2.8c0.6-1,1.5-2.1,2.6-3
					c2.1-1.6,4.3-2.6,6.7-3.1c2.4-0.5,4.7-0.4,6.8-0.1c1.1,0.1,2.1,0.3,3.1,0.5l0.1,0l0,0l0,0l0.1,0l0.1,0c0.1,0,0.2,0,0.2-0.1
					c0-0.1-0.1-0.1-0.1-0.2l-0.1-0.1l0,0l-0.1-0.1l-0.5-0.5c-0.7-0.7-1.4-1.4-2.1-2.1c-2.7-2.8-5-6-6.6-9.4
					c-0.8-1.7-1.5-3.5-1.8-5.4c-0.2-1-0.2-1.9-0.2-2.8c0-0.8,0-1.6,0-2.5c0-3.1-0.6-6-1.2-8.9c-0.6-2.9-1.2-5.6-2.1-8
					c-0.9-2.4-1.9-4.6-3.2-6.4c-2.6-3.7-5.8-6.1-8.6-7.7c-2.8-1.6-5.3-2.4-6.9-2.9c-1.7-0.5-2.6-0.8-2.5-1c0-0.2,1-0.2,2.7,0
					c1.8,0.2,4.4,0.8,7.6,2.1c3.2,1.4,6.9,3.8,10,7.7c1.5,2,2.9,4.3,3.9,6.9c1.1,2.6,1.9,5.4,2.6,8.4c0.7,2.9,1.5,6.2,1.6,9.6
					c0.1,1.7,0,3.3,0.3,4.7c0.3,1.4,0.9,2.9,1.6,4.3c1.5,2.9,3.5,5.6,6,8.2c0.6,0.6,1.3,1.3,2,1.9l1.4,1.3c0.7,0.6,1.3,1.3,1.8,1.9
					c0.5,0.6,0.8,1.3,1,1.8c0.2,0.6,0.2,1.1,0,1.7c-0.1,0.3-0.2,0.7-0.4,0.9c-0.2,0.3-0.4,0.5-0.6,0.7c-0.4,0.4-1,0.6-1.6,0.7
					c-0.7,0.1-1.5,0.1-2.4,0c-0.5-0.1-0.9-0.1-1.4-0.2L87,74.6c-1-0.2-1.9-0.3-2.8-0.4c-1.9-0.2-3.7-0.2-5.4,0.1
					c-0.8,0.2-1.7,0.4-2.4,0.8c-0.8,0.4-1.5,0.8-2.1,1.3c-0.6,0.5-1.1,1.1-1.5,1.9c-0.5,0.8-1,1.8-1.6,2.8c-2.6,4.1-6.5,7.3-11,9.2
					c-4.4,2-9.3,2.8-14.1,2.9c-2.4,0.1-4.6,0-7,0c-2.3-0.1-4.7-0.3-7-0.7c-4.7-0.8-9.2-2.7-13-5.5c-3.8-2.7-6.8-6.3-9-10.1
					C8,73.1,6.5,69,5.6,65c-1.8-8.1-1.4-16.2,0.6-23.3c2.1-7.1,5.9-13,10.1-17.5c4.3-4.5,9-7.6,13.5-9.7c4.4-2.1,8.6-3.1,12-3.4
					c1.7-0.2,3.2-0.2,4.5-0.2c1.3,0.1,2.4,0.2,3.3,0.4c1.8,0.4,2.6,0.7,2.6,0.8s-1,0.2-2.7,0.2c-0.9,0-1.9,0.1-3.2,0.1
					c-1.3,0.2-2.7,0.2-4.3,0.6c-3.2,0.6-7,1.8-11.1,4c-4.1,2.2-8.3,5.3-12.1,9.6c-3.8,4.3-7.1,9.8-8.8,16.3
					C8.5,49.2,8.3,56.6,10,63.9c0.9,3.6,2.2,7.2,4.2,10.6c2,3.3,4.6,6.3,7.8,8.6c3.2,2.3,6.9,3.8,11,4.5c2,0.4,4.1,0.5,6.3,0.6
					C41.5,88.3,43.8,88.4,46,88.3z"/>
			</g>
		</g>
	</g>
</g>
<g id="Safe" display="none">
	<path display="inline" fill="none" stroke="#D8817D" stroke-width="8" stroke-miterlimit="10" d="M36.1,57.2"/>
	<path display="inline" fill="none" stroke="#020101" stroke-width="8" stroke-miterlimit="10" d="M3,24.9"/>
	<path display="inline" fill="#FAF4B6" d="M18.7,73.3c0.6-10.8,0.9-16.2,0.6-20c-0.2-2.4-0.6-7.1,2.2-9.4c0.7-0.6,1.5-1,2-1.6
		c1.4-1.6,0.5-3.9,0.4-5.9c-0.1-3.4,2.1-6.5,4.2-9.4c2.7-3.6,5.4-7.2,8.8-10.1c3.5-3,7.9-5.3,12.7-5.8c6.1-0.6,12.2,1.8,17,5.1
		c1.8,1.2,3.4,2.6,4.7,4.2c1.2,1.5,2.1,3.2,2.9,4.9c1,1.9,1.9,3.9,2.9,5.8c0.8,1.6,1.6,3.3,1.4,5.1c-0.3,2.4-2.7,4.7-1.9,7
		c1.7,1.1,4.5,0.8,5.3,2.5c0.3,0.6,0.3,1.2,0.3,1.4c-0.6,9.1-1.3,20.6-0.8,26.9c0.1,1.8,0.5,4.4,0,7.7c-0.3,1.9-0.6,2.4-0.5,4
		c0,1.8,0.4,2.9-0.3,3.7c-0.7,0.8-2.1,0.8-2.6,0.8c-4,0-26.3,0-32.3,0.8c-0.8,0.1-2.8,0.4-5.2,0c-2.2-0.4-2.2-0.9-3.7-0.9
		c-2.8-0.1-3.5,1.7-6.7,2c-1.8,0.2-3.1-0.3-4.7-0.8c-5.1-1.7-6-1.8-6.3-2.1c-1.1-1.3-0.7-2.9-0.5-4.3C19.3,81,18.5,77.1,18.7,73.3z"
		/>
	<path display="inline" fill="#E2DAAC" d="M45.8,86.6c0.2-0.7,0.4-1.4,0.1-2.1c-0.2-0.4-0.4-0.7-0.7-1.1c-0.8-1.1-1.3-2.6-0.9-3.9
		c0.4-1.3,1.9-2.4,3.4-2.2c0.4-0.4,0.1-1.1-0.4-1.3c-0.5-0.3-1.1-0.3-1.7-0.5c-1.5-0.5-2.4-2-2-3.3c1.3-0.2,2.5-0.4,3.8-0.6
		c0.2-0.5,0-1.2-0.5-1.5c-0.4-0.2-0.8-0.3-1.2-0.5c-1-0.5-1.5-1.7-1.1-2.6c1.3-0.4,2.6-0.8,3.8-1.2c0.6-0.2,1.3-0.5,1.2-1.1
		c-0.1-0.2-0.3-0.4-0.5-0.6c-2.3-1.8-3.4-4.7-2.6-7.3c0.7-2.6,3.3-4.8,6.2-5.4c0.4-0.1,0.9-0.1,1.3,0c0.4,0.2,0.6,0.5,0.7,0.7
		c0.3,0.4,0.9,0.9,2.3,1.2c0.5,0.8,0.9,1.7,1.3,2.7c0.4,0.9,0.7,1.8,1,2.6c4.3-2.1,8.5-4.3,12.5-6.8c0.9-0.5,1.8-1.1,2.5-1.8
		c0.7-0.8,1.2-1.7,1.6-2.6c0.5-1,1-2,1.5-3.1c0.1-0.3,0.3-0.6,0.6-0.7c0.3-0.1,0.6-0.1,0.9-0.1c1.3,0.3,2.2,1.5,2.4,2.7
		c0.2,1.2-0.1,2.4-0.3,3.6c-1,6.2,0.4,12.5-0.3,18.7c-0.2,1.3-0.4,2.7-0.4,4c0,1.5,0.5,3.1,0.8,4.6c0.4,2.1,0.5,4.1,0.6,6.2
		c0.1,1.8-0.1,3.1-1,4.6c0,0-0.8,1.3-1.9,2.3c-3.8,3-10.4-1.3-21.2-0.1c-2.6,0.3-3,0.6-6.4,0.9c-3.4,0.2-7.3-0.9-10.6-0.2
		C42.8,91.2,45.3,88.1,45.8,86.6z"/>
	<path display="inline" fill="#E2DAAC" d="M85,83.3"/>
	<g display="inline">
		<g>
			<g>
				<path fill="#311D1C" d="M79.9,50c0-1.1,0-2.2,0-3.2c0,0,0,0,0,0c0,0-0.2-0.1-0.3-0.1c-0.2,0-0.4-0.1-0.7-0.1l-1.2,0
					c-3.1-0.1-6.1-0.1-9.2-0.2c-6-0.1-11.9-0.2-17.5-0.3c-5.6-0.1-11-0.3-16.2-0.4c-2.6-0.1-5.1-0.1-7.5-0.2c-1.2,0-2.4-0.1-3.6-0.1
					c-0.5,0-0.9,0-1.4,0c0,0-0.1,0-0.2,0c-0.1,0-0.1,0-0.2,0.1c-0.1,0-0.2,0.1-0.2,0.1c-0.1,0.1-0.2,0.3-0.3,0.7
					c0,0.7-0.1,1.5-0.1,2.2c-0.1,1.5-0.1,2.9-0.2,4.4c-0.1,2.8-0.2,5.5-0.3,8c-0.2,5-0.5,9.3-0.7,12.9c-0.5,7.1-1,11.1-1.5,11.1
					c-0.4,0-0.5-4-0.7-11.1c-0.1-3.6-0.1-7.9-0.2-12.9c0-2.5,0-5.2-0.1-8c0-1.4,0-2.9,0-4.4c0-0.8,0-1.5,0-2.3
					c0-0.5,0.1-1.1,0.3-1.7c0.2-0.6,0.6-1.2,1.1-1.7c0.4-0.4,0.8-0.6,1.2-0.8c0.2-0.1,0.4-0.2,0.6-0.2c0.2-0.1,0.4-0.1,0.7-0.2
					c0.3-0.1,0.5-0.1,0.8-0.1l0.5,0l0.9,0c1.2,0,2.4,0,3.6,0c2.4,0,4.9,0,7.5,0c5.1,0,10.6,0,16.2,0.1c5.6,0,11.5,0.1,17.5,0.1
					c3,0,6.1,0.1,9.1,0.1l1.2,0c0.4,0,1,0,1.6,0.1c0.6,0.1,1.2,0.3,1.9,0.7c0.6,0.4,1.3,0.9,1.7,1.6c0.4,0.7,0.7,1.4,0.8,2.2
					c0,0.2,0,0.4,0,0.6l0,0.3l0,0.6c0,0.8,0,1.6,0,2.4c-0.1,7.4-0.1,14.7-0.2,21.7c0,3.5,0,6.9,0,10.3c0,0.8,0,1.7,0,2.5
					c0,0.8,0,1.7,0.1,2.3c0.1,1,0.1,2.4-0.6,3.7c-0.4,0.7-0.9,1.3-1.6,1.7c-0.7,0.4-1.3,0.6-1.9,0.8c-0.6,0.1-1.2,0.2-1.6,0.2
					l-1.2,0c-0.8,0-1.6,0-2.4,0c-1.6,0-3.1,0-4.6,0c-3.1,0-6,0-8.9,0c-5.7,0-11.1-0.1-16-0.2c-4.9-0.1-9.3-0.2-13.2-0.4
					c-1.9-0.1-3.8-0.2-5.4-0.4c-0.8-0.1-1.6-0.1-2.4-0.2c-0.7-0.1-1.5-0.1-2.2-0.3c-1.5-0.3-2.8-0.9-3.6-1.9c-0.8-1-1-2.1-1-2.9
					c0.1-1.6,0.5-2.2,0.6-2.2c0.2,0,0.1,0.8,0.3,2.1c0.1,0.6,0.4,1.4,1,1.9c0.6,0.6,1.6,0.9,2.8,1c0.6,0.1,1.3,0,2.1,0
					c0.8,0,1.5,0,2.4,0c1.7,0,3.4,0,5.4-0.1c3.9-0.1,8.3-0.2,13.1-0.3c4.9-0.1,10.2-0.3,15.9-0.4c2.9-0.1,5.8-0.2,8.9-0.2
					c1.5,0,3.1-0.1,4.6-0.1c0.8,0,1.6,0,2.4-0.1l1.2,0c0.3,0,0.5,0,0.7-0.1c0.4-0.1,0.4-0.2,0.4-0.2c0,0,0.1-0.1,0.1-0.3
					c0-0.2,0-0.4,0-0.8c-0.1-1-0.1-1.8-0.1-2.7c0-0.8,0-1.7-0.1-2.5c-0.1-3.4-0.1-6.8-0.1-10.4C79.8,64.7,79.8,57.5,79.9,50z"/>
			</g>
		</g>
	</g>
	<g display="inline">
		<g>
			<g>
				<path d="M55.2,81.2c-0.1,0.5-0.2,1-0.5,1.6c-0.3,0.6-0.7,1-1.2,1.4c-0.9,0.7-1.8,1-2.7,1.2c-1.9,0.4-3.8,0.4-5.6-0.4
					c-0.9-0.4-1.8-1.2-2.3-2.2c-0.4-1-0.5-2.1-0.1-3.1c0.3-1,1.1-1.9,1.9-2.4c0.4-0.3,0.9-0.4,1.3-0.6c0.1,0,0.2-0.1,0.3-0.1l0,0
					l0,0c0.1,0,0.1-0.1,0-0.2c0,0,0,0-0.1,0l0,0c0,0,0,0-0.1,0c-0.4-0.1-0.8-0.1-1.3-0.3c-0.5-0.1-1.1-0.4-1.5-1
					c-0.4-0.6-0.5-1.3-0.4-1.8c0.1-0.7,0.3-1.3,0.6-1.9c0-0.1,0.1-0.1,0.2-0.1l0.2,0c0.2,0,0.3,0,0.5,0l0.9,0c0.4,0,0.7,0,1.1,0
					l0.1,0l0.1,0l0.1,0c0.1,0,0.1-0.1,0.1-0.1c0-0.1,0-0.2,0-0.2c0,0,0-0.1-0.1-0.1c-0.1-0.1-0.1-0.1-0.2-0.2
					c-0.2-0.1-0.4-0.2-0.6-0.3c-0.1,0-0.2-0.1-0.4-0.1l-0.2,0l-0.1,0l-0.2,0c-0.5,0-1.1,0-1.6,0c0-0.3,0-0.7,0-1c0-0.3,0-0.7,0-1
					c0-0.9,0-1.5,0.1-2c0.5,0.1,1.1,0.2,1.6,0.3l0.4,0l0.2,0c0.1,0,0.3,0,0.4,0c0.5,0,1-0.1,1.4-0.3c0.8-0.4,1.5-0.9,1.6-1.4
					c0-0.2,0-0.4-0.1-0.6c-0.1-0.2-0.3-0.4-0.5-0.5c-0.4-0.3-0.7-0.7-0.9-0.9c-0.5-0.6-0.6-1-0.5-1c0.1-0.1,0.3,0.2,0.9,0.6
					c0.3,0.2,0.6,0.4,1.1,0.7c0.2,0.2,0.5,0.3,0.7,0.6c0.2,0.3,0.5,0.7,0.4,1.2c0,0.6-0.3,1.1-0.7,1.5c-0.4,0.4-0.8,0.7-1.3,1
					c-0.5,0.3-1.1,0.5-1.8,0.6c-0.2,0-0.3,0-0.5,0l-0.3,0c-0.1,0-0.2,0-0.3,0c-0.1,0,0,0.1,0,0.2c0,0.1,0,0,0,0.1c0,0.1,0,0.3,0,0.2
					c0,0,0,0,0,0c0,0.1,0,0.2,0,0.2c0.1,0,0.2,0,0.3,0l0,0l0.1,0l0.3,0c0.2,0,0.4,0.1,0.6,0.1c0.4,0.1,0.7,0.3,1.1,0.5
					c0.2,0.1,0.3,0.3,0.5,0.4c0.2,0.2,0.4,0.4,0.5,0.7c0.3,0.5,0.4,1.1,0.3,1.6c0,0.3-0.1,0.5-0.2,0.8c-0.1,0.1-0.1,0.3-0.2,0.4
					L48.3,73c-0.4,0.2-1.2,0.1-1.7,0.1c-0.4,0-0.7,0-1.1,0c-0.1,0-0.1,0-0.1,0l0,0c0,0-0.1,0-0.1,0c0,0.1,0,0.1,0,0.2
					c0,0.2,0,0.4,0.1,0.4c0,0,0.1,0.1,0.4,0.2c0.3,0.1,0.6,0.1,1.1,0.2c0.1,0,0.3,0.1,0.5,0.1c0.2,0.1,0.4,0.1,0.5,0.2
					c0.3,0.1,0.6,0.3,0.9,0.6c0.5,0.5,0.7,1.2,0.6,1.8c0,0.3-0.1,0.7-0.2,1l-0.1,0.2l-0.1,0.2l-0.2,0.4c-0.4,0-0.8,0-1.2,0
					c-0.2,0-0.4,0-0.5,0.1c-0.1,0-0.1,0-0.2,0.1c-0.3,0.1-0.5,0.2-0.8,0.3c-0.4,0.3-0.8,0.7-0.9,1.1c-0.1,0.4-0.1,1,0.1,1.4
					c0.2,0.4,0.5,0.7,1.1,1c1.1,0.5,2.7,0.6,4,0.2c0.7-0.2,1.3-0.4,1.8-0.8c0.5-0.4,0.6-0.6,0.7-1.4c0.2-1.5,0-3.2,0-4.8
					c-0.1-1.6-0.2-3.3-0.2-4.9c0-1.6-0.2-3.2,0.2-5.1c0.2-0.9,0.8-1.9,1.5-2.5c0.6-0.7,1.7-1.1,2.2-1.4c0.3-0.1,0.5-0.3,0.7-0.4
					c0.2-0.2,0.5-0.4,0.6-0.6c0.3-0.4,0.6-0.9,0.7-1.4c0.3-1.1,0.1-2.3-0.2-3.4c-0.4-1-1.1-2.1-1.8-2.8c-0.7-0.7-1.6-1.2-2.6-1.3
					c-1.9-0.3-3.6,0.8-4.8,1.9c-1.2,1.1-1.9,2.4-2.2,3.6c-0.3,1.1-0.2,2.1-0.1,2.7c0.1,0.6,0.3,0.9,0.2,1c-0.1,0-0.4-0.2-0.7-0.8
					c-0.3-0.6-0.6-1.7-0.4-3c0.2-1.3,0.8-2.9,2.1-4.3c0.6-0.7,1.4-1.4,2.4-1.9c1-0.5,2.2-0.9,3.5-0.8c1.3,0.1,2.6,0.7,3.7,1.7
					c1,0.9,1.8,2.1,2.4,3.5c0.5,1.4,0.8,3,0.4,4.6c-0.2,0.8-0.5,1.7-1.1,2.4c-0.3,0.4-0.6,0.6-0.9,0.9c-0.4,0.3-0.8,0.5-1.2,0.7
					c-0.8,0.3-1.1,0.5-1.6,1c-0.4,0.4-0.7,0.8-0.8,1.4c-0.3,1.2-0.1,2.8,0,4.4c0.1,1.6,0.2,3.2,0.3,4.9
					C55.3,77.6,55.4,79.2,55.2,81.2z"/>
			</g>
		</g>
	</g>
	<g display="inline">
		<g>
			<g>
				<path d="M51.5,8.7c3.5,0,6.9,0.9,9.9,2.2c3,1.3,5.6,3,7.8,5c0.3,0.2,0.6,0.5,0.8,0.7c0.3,0.3,0.5,0.5,0.8,0.8
					c0.5,0.5,1,1,1.5,1.6c0.4,0.6,0.8,1.1,1.3,1.6c0.2,0.3,0.4,0.5,0.6,0.8c0.2,0.3,0.3,0.6,0.5,0.8c0.3,0.6,0.7,1.1,1,1.6
					c0.3,0.6,0.5,1.1,0.8,1.7c0.6,1.1,0.9,2.2,1.2,3.3c1.3,4.3,1.2,7.9,0.8,10.3c-0.5,2.4-1,3.6-1.3,3.5c-0.4-0.1-0.5-1.4-0.6-3.6
					c-0.3-2.2-0.7-5.4-2.2-9c-0.4-0.9-0.8-1.8-1.4-2.7c-0.3-0.5-0.5-0.9-0.8-1.4c-0.3-0.4-0.6-0.9-1-1.4c-0.2-0.2-0.3-0.5-0.5-0.7
					c-0.2-0.2-0.4-0.4-0.6-0.7c-0.4-0.4-0.8-0.9-1.2-1.3c-0.4-0.4-0.9-0.8-1.3-1.3L67,19.9l-0.7-0.6c-1.9-1.6-4.3-3-6.8-4
					c-2.5-1-5.3-1.7-8.1-1.7c-2.8,0-5.6,0.5-8.1,1.5c-0.6,0.3-1.3,0.5-1.9,0.8c-0.6,0.3-1.2,0.6-1.8,0.9c-1.1,0.7-2.3,1.3-3.2,2.1
					c-4.1,3-6.8,6.9-8.4,10.4c-1.6,3.5-2.2,6.7-2.5,8.9c-0.2,2.2-0.4,3.5-0.7,3.6c-0.3,0-0.8-1.2-1.2-3.6c-0.3-2.4-0.3-6,1.2-10.2
					c1.4-4.2,4.2-8.9,8.8-12.7c1.1-1,2.4-1.8,3.7-2.7c0.7-0.4,1.4-0.8,2.1-1.1c0.7-0.4,1.5-0.6,2.2-1C44.6,9.4,47.9,8.6,51.5,8.7z"
					/>
			</g>
		</g>
	</g>
</g>
<g id="About" display="none">
	<path display="inline" fill="#F6EAC1" d="M50.8,88.2c-4.2,0.5-8.5,0.8-12.7,0.8c-1.7,0-3.8-0.2-4.7-1.8c-0.4-0.8-0.5-1.7-0.6-2.6
		c-0.2-2.9,0-5.9,0.3-8.8c0.1-0.5,0.1-1-0.1-1.5c-0.4-0.7-1.2-0.8-2-0.8c-4.5-0.1-9-1-13.2-2.7c-2.2-0.9-4.5-2.1-6.1-4
		c-1.7-1.9-2.7-4.6-2.1-7.1c0.4-1.9,1.6-3.5,2.9-5c3.1-3.4,6.6-6.3,9.2-10.1c3.2-4.7,4.8-10.5,6.9-15.9s4.9-10.9,9.6-13.8
		c2.4-1.5,5.2-2.1,7.4-3.9c0.9-0.7,1.7-1.6,2.8-1.9c1.9-0.7,4,0.3,5.8,1.3c2.6,1.4,5.1,2.9,7.7,4.3c1,0.6,2.1,1.1,3,1.9
		c1.4,1.2,2.5,2.7,3.5,4.2c6,9.2,9.2,20.3,15.5,29.2c0.9,1.3,2,2.6,2.7,4.1c1.5,3.1,1.6,7,0.2,10.2c-1.4,3.2-4.2,5.6-7.4,6.2
		c-2.2,0.5-4.4,0.2-6.7,0.3s-4.6,0.7-6,2.6c-2.4,3.2-1,8.4-3.3,11.6c-2.1,3.1-6.3,3-9.8,2.7c-2.2-0.2-4.4-0.4-6.6-0.6"/>
	<path display="inline" fill="#D5C9A9" d="M33.6,84.5c0,1.1,0.1,2.4,1,3c0.4,0.3,1,0.4,1.5,0.4c5.9,0.6,11.9,1.3,17.8,1.9
		c2.2,0.2,4.4,0.4,6.4-0.6c2.9-1.6,4-5.4,4.9-8.8c0.5-2,1-4,1.5-6c0.2-0.8,0.4-1.6,1-2c0.5-0.3,1.1-0.3,1.7-0.3
		c5.4,0.2,10.8-1.6,15.1-5c0.6-0.4,1.1-0.9,1.5-1.5c1.6-2.1,1.4-5.3,0.5-7.8c-0.9-2.6-2.5-4.8-3.6-7.3c-0.8-1.8-1.3-3.6-1.9-5.4
		c-1.1-3.1-2.8-5.9-4.4-8.7c-0.5-0.8-1-1.7-1.8-2.1C75,40.7,75,47.7,72,53.3c-1.2,2.3-2.9,4.3-4.7,6.1c-3.9,4-8.5,7.6-13.8,8.6
		c-3.4,0.7-7,0.2-10.2,1.5c-1.6,0.6-3.1,1.6-4.7,2.4c-1.1,0.6-3.6,0.8-4.5,1.6C32.3,75,33.6,82.2,33.6,84.5z"/>
	<g display="inline">
		<g>
			<g>
				<path fill="#311D1C" d="M78.8,38.4c1.1,2.8,2.4,5.6,3.8,8.3c1.4,2.7,3,5.2,4.6,7.7c0.8,1.3,1.6,2.6,2.3,4.1
					c0.2,0.4,0.3,0.8,0.4,1.2c0.1,0.4,0.2,0.8,0.3,1.3c0.1,0.4,0,0.9,0,1.3c0,0.4-0.1,0.9-0.2,1.3c-0.5,1.7-1.4,3.1-2.5,4.2
					c-1.1,1.1-2.4,2-3.7,2.8c-2.6,1.5-5.5,2.4-8.4,2.7c-1.5,0.1-2.9,0-4.2-0.1c-1.3-0.1-2.6-0.1-3.2,0.4c-0.2,0.1-0.3,0.3-0.5,0.4
					c-0.1,0.2-0.2,0.2-0.2,0.5c-0.1,0.5-0.2,1.2-0.3,1.8c-0.2,1.3-0.3,2.6-0.5,3.8c-0.2,1.3-0.4,2.5-0.5,3.8
					c-0.1,0.6-0.2,1.3-0.3,1.9c-0.1,0.3-0.1,0.6-0.2,0.9c-0.1,0.3-0.1,0.6-0.3,1.1c-0.1,0.3-0.3,0.4-0.4,0.6
					c-0.1,0.1-0.2,0.3-0.4,0.4c-0.3,0.3-0.6,0.5-0.9,0.7c-0.7,0.4-1.4,0.6-2.1,0.7c-1.3,0.2-2.5,0.1-3.7,0.1
					c-2.4-0.1-4.6-0.3-6.8-0.3c-2.2-0.1-4.3,0-6.4,0c-2.1,0-4,0.2-6,0.1c-1,0-2,0-3-0.4c-0.5-0.2-1.1-0.4-1.5-0.9
					c-0.2-0.2-0.4-0.4-0.5-0.7c-0.2-0.2-0.3-0.5-0.4-0.8c-0.2-0.6-0.1-1.1-0.1-1.6c0-0.4,0.1-0.9,0.1-1.3c0.1-0.8,0.1-1.7,0.2-2.5
					c0.1-1.6,0.1-3.2,0.1-4.6c0-1.2,0-2.4,0.1-3.5c-0.1,0-0.3,0-0.4,0.1c-0.2,0-0.3,0-0.5,0c-0.5,0-1,0.1-1.5,0.1
					c-1,0-1.9,0-2.7-0.1c-1.7-0.2-3.1-0.5-4.2-0.8c-2.2-0.7-3.2-1.3-3.2-1.4c0-0.1,1.2,0.3,3.3,0.8c1.1,0.2,2.5,0.4,4.1,0.5
					c0.8,0,1.7,0,2.6,0c0.5,0,0.9-0.1,1.4-0.1l0.5-0.1l0.6-0.1c0.4-0.1,0.8-0.1,1.1-0.2c0,1.5,0.1,3.1,0.1,4.8c0,1.5,0.1,3,0,4.7
					c0,0.8-0.1,1.7-0.1,2.5c0,0.4,0,0.8-0.1,1.3c0,0.4,0,0.8,0.1,1.1c0,0.1,0.1,0.3,0.2,0.4c0.1,0.1,0.2,0.3,0.3,0.4
					c0.2,0.2,0.5,0.4,0.9,0.5c0.7,0.2,1.7,0.2,2.6,0.2c1.9,0,3.9-0.2,6-0.3c2.1-0.1,4.2-0.1,6.5-0.1c2.2,0,4.5,0.1,6.8,0.2
					c1.1,0,2.3,0,3.3-0.1c0.5-0.1,1-0.2,1.3-0.4c0.2-0.1,0.3-0.2,0.5-0.4c0.1-0.1,0.1-0.2,0.2-0.3c0.1-0.1,0.1-0.2,0.1-0.2
					c0-0.1,0.1-0.4,0.2-0.7c0.1-0.3,0.1-0.6,0.2-0.9c0.1-0.6,0.2-1.2,0.3-1.8c0.2-1.2,0.3-2.5,0.5-3.7c0.2-1.3,0.3-2.6,0.5-3.8
					c0.1-0.7,0.1-1.3,0.3-2.1c0.1-0.4,0.3-1,0.6-1.3c0.3-0.3,0.6-0.7,1-0.9c0.8-0.5,1.7-0.7,2.4-0.8c0.8-0.1,1.5,0,2.2,0
					c1.4,0.1,2.7,0.2,3.9,0c2.5-0.2,5.1-1.1,7.4-2.4c2.3-1.3,4.4-3.2,5-5.6c0.3-1.2,0.1-2.3-0.4-3.5c-0.5-1.2-1.3-2.5-2.1-3.7
					c-1.6-2.5-3.3-5.1-4.7-7.9c-1.5-2.7-2.7-5.6-3.9-8.6c-0.4-1-0.8-2.1-1.1-3.2c-0.3-1.1-0.6-2.2-0.8-3.2c-0.5-1.9-1.5-3.8-2.5-5.6
					c-2-3.6-4.4-7.1-7.2-9.8c-1.4-1.4-3-2.6-4.6-3.7c-0.8-0.4-1.6-1-2.5-1.3L56.5,12l-1.3-0.3c-1.8-0.4-3.6-0.6-5.4-0.3
					c-1.8,0.2-3.5,0.8-5.1,1.6c-3.2,1.6-6,4-8.3,6.5c-2.3,2.6-4.3,5.4-5.9,8.3c-0.8,1.4-1.5,2.9-2,4.3c-0.5,1.4-0.7,3-1.2,4.6
					c-0.5,1.6-1.1,3-1.8,4.4c-0.4,0.7-0.7,1.4-1,2c-0.4,0.7-0.8,1.3-1.1,1.9c-1.5,2.5-3.3,4.7-5.1,6.6c-1.8,1.9-3.6,3.6-5.1,5.2
					c-0.7,0.8-1.4,1.6-1.9,2.5c-0.4,0.9-0.7,1.7-0.6,2.6c0,0.9,0.3,1.7,0.7,2.4c0.4,0.7,0.9,1.4,1.4,2c1.1,1.1,2.2,2,3.2,2.6
					c1,0.7,1.9,1.2,2.7,1.6c1.5,0.8,2.3,1.2,2.2,1.3c0,0.1-0.9-0.2-2.5-0.8c-0.8-0.3-1.7-0.8-2.8-1.4C14.3,69,13,68.2,11.8,67
					c-0.6-0.6-1.2-1.3-1.6-2.1c-0.5-0.8-0.8-1.8-0.9-2.9c-0.2-1.1,0.2-2.2,0.6-3.3c0.5-1,1.2-1.9,2-2.8c1.5-1.7,3.3-3.4,5-5.4
					c1.7-1.9,3.3-4.1,4.7-6.5c0.3-0.6,0.7-1.2,1.1-1.9c0.3-0.6,0.6-1.3,1-2c0.6-1.3,1.2-2.7,1.6-4.1c0.4-1.4,0.6-3,1.2-4.7
					c0.5-1.6,1.3-3.2,2.1-4.7c1.7-3,3.7-6,6.1-8.8c2.4-2.8,5.4-5.4,9-7.1c1.8-0.9,3.8-1.5,5.8-1.8c2.1-0.3,4.2-0.1,6.3,0.3l1.5,0.4
					c0.5,0.2,1,0.4,1.5,0.6c1,0.3,1.9,0.9,2.9,1.4c1.8,1.2,3.5,2.4,5,4c3.1,3,5.6,6.6,7.7,10.4c0.5,1,1,1.9,1.5,2.9
					c0.5,1,0.9,2.1,1.2,3.2c0.3,1.1,0.5,2.1,0.8,3.1C78.1,36.4,78.4,37.4,78.8,38.4z"/>
			</g>
		</g>
	</g>
</g>
<g id="heart" display="none">
	<path display="inline" fill="#F1938B" d="M48,84c-2.8-4.6-5.6-9.2-8.4-13.8c-1.2-2-2.4-4-4.1-5.6c-2.8-2.7-6.5-4.1-9.9-5.9
		C20.5,56,16,52.2,12.5,47.5c-1.8-2.3-3.3-4.9-4.2-7.7c-2.4-7.4-0.2-15.8,4.1-22.3c1-1.5,2.1-3,3.6-4.1c1.3-1,2.8-1.7,4.4-2.3
		c5.7-2,12.1-1.8,17.7,0.5c2.8,1.1,5.4,2.8,7.7,4.9c1.5,1.4,4,6.5,5.5,7.1c2.6,1,11-10.5,13.1-12.5c0.8-0.8,1.7-1.6,2.7-2.1
		c1.5-0.7,3.2-0.6,4.7-0.4c7.5,1.1,13.9,6.3,17.9,12.8c1.1,1.9,2.1,3.9,2.3,6c0.2,1.7-0.2,3.4-0.5,5.1c-0.5,2.5-1.2,4.9-2,7.4
		c-0.6,1.8-1.2,3.5-2.1,5.1c-2.8,4.4-7.9,6.6-12.4,9.2c-11.7,6.7-21,17.4-26,30c-3.1-3.2-3.1-8.1-2.8-12.5c0.6-7.8,2-15.6,4-23.2
		c0.7-2.7,1.5-5.4,2.1-8.2c1.4-6.5,1-12.8,1.5-19.3c0.4-4.8,5.1-6.9,9.3-8.4c3.6-1.3,7.3-2.4,11.1-2.4c3.8-0.1,7.8,1.1,10.5,3.8
		c2.2,2.2,3.4,5.2,4.5,8.1c1.1,2.9,2.2,5.9,1.9,9c-0.3,2.8-1.7,5.4-2.2,8.2c-0.5,2.5-0.2,5.2-1.5,7.3c-1.3,2.1-3.7,3.1-5.9,4.2
		c-2.6,1.4-4.9,3.1-7.2,4.8c-1.4,1.1-2.9,2.2-4.4,3.1c-1.6,1-3.3,1.8-4.9,2.8c-7.1,4.5-10.8,12.8-14,20.6c-0.9,2.3-1.9,4.5-2.8,6.8
		c-1.9-2.2-2.8-5.4-2.2-8.3"/>
	<path display="inline" fill="#D8817D" d="M46.4,80.1c-1.7-2.4-0.9-5.7-0.1-8.5c1.7-5.8,3.4-11.6,5-17.4c1.9-6.7,3.9-13.4,3.7-20.4
		c-0.1-4.1-0.9-8.4,0.7-12.2c0.9-2.1,2.5-3.9,4.2-5.4c4.7-4.2,11.2-6.9,17.4-5.9c6.5,1.1,9.3,7.8,11.8,12.8c1.9,3.7,2.2,6.5,2.4,7.9
		c0.1,1.4,0.3,4.4-1,7.8c-0.9,2.2-2,3.7-2.8,4.5c-5.1,6-13.1,11-19.8,16.3c-6.4,5.1-9,8-11.1,10.6c-3.5,4.5-5.6,9.9-9,14.5
		c-0.3,0.4-0.6,0.7-1,0.7c-0.5-0.1-0.7-0.6-0.8-1.1c-0.3-2.1-1-7.2-1.1-8.7"/>
	<g display="inline">
		<g>
			<g>
				<path fill="#383729" d="M89.4,27.2c-0.3-2.2-0.8-4.3-1.6-6.3c-0.8-2-1.9-3.8-3.2-5.3c-2.7-3-6.5-4.4-10.5-4.3
					c-4,0.1-8,1.4-11.2,3.6c-1.5,1.1-3,2.5-4.2,4c-0.6,0.8-1.2,1.5-1.7,2.4l-0.4,0.6l-0.2,0.3l-0.1,0.2l-0.1,0.3l-0.3,0.6L55.5,24
					c-0.1,0.2-0.2,0.5-0.3,0.8c-0.1,0.3-0.2,0.5-0.2,0.8c-0.3,1.2-0.6,2.3-1,2.9c-0.4,0.6-0.7,0.9-1,1c-0.3,0.1-0.5,0.2-0.8,0.3
					l-0.3,0.1c-0.1,0-0.3,0.1-0.4,0c-0.2-0.1-0.3-0.1-0.5-0.2c-0.2-0.1-0.5-0.2-0.7-0.4c-0.3-0.2-0.6-0.6-0.9-1.4
					c-0.3-0.7-0.5-2-0.7-3.1c-0.2-1.1-0.5-2-0.9-2.8c-0.7-1.6-1.6-3.2-2.7-4.6c-0.3-0.3-0.5-0.7-0.8-1c-0.3-0.3-0.5-0.6-0.8-0.8
					c-0.6-0.6-1.2-1-1.9-1.5c-2.8-1.8-6-3-9.2-3.5c-3.2-0.5-6.3-0.4-9,0.3c-2.8,0.7-5.2,2.1-7.1,3.9c-2,1.7-3.4,3.9-4.4,6
					c-1.1,2.1-1.8,4.2-2.2,6.3c-0.5,2-0.6,3.9-0.8,5.6C8.6,36,9,38.6,9.3,40.4c0.1,0.9,0.3,1.6,0.4,2.1c0.1,0.5,0.1,0.7,0,0.8
					s-0.2-0.2-0.5-0.6c-0.2-0.4-0.6-1.1-0.9-2c-0.7-1.8-1.4-4.5-1.5-8.2c0-1.8,0-3.8,0.4-6c0.3-2.2,1-4.6,2-7
					c1.1-2.4,2.6-4.9,4.8-7.1c2.2-2.1,5.1-3.9,8.3-4.9c6.6-1.9,14.5-1,21.4,3.2c0.9,0.6,1.7,1.2,2.5,1.9c0.4,0.3,0.8,0.8,1.2,1.2
					c0.4,0.4,0.7,0.8,1,1.2c1.3,1.6,2.4,3.4,3.3,5.4c0.1,0.3,0.2,0.4,0.2,0.6c0,0,0.1,0.1,0.1,0c0-0.1,0-0.1,0-0.2
					c0-0.1,0-0.2,0.1-0.3l0-0.1l0,0l0.1-0.1l0.1-0.2l0.2-0.4l0.4-0.8c0.6-1,1.3-1.9,2-2.9c0.7-0.9,1.5-1.8,2.3-2.6
					c0.8-0.8,1.8-1.7,2.8-2.3c2-1.4,4.2-2.5,6.5-3.2c2.3-0.8,4.8-1.3,7.3-1.3c2.5-0.1,5.2,0.3,7.7,1.3c2.5,1,4.8,2.6,6.6,4.6
					c1.8,2,3.2,4.3,4.2,6.7c1,2.4,1.6,5,2,7.5c0.5,3.9,0.4,7.8-0.5,11.6c-0.3,0.9-0.5,1.9-0.8,2.8c-0.2,0.5-0.3,0.9-0.5,1.4
					l-0.6,1.3c-0.4,0.9-1,1.7-1.5,2.6c-0.3,0.4-0.6,0.8-0.9,1.2c-0.3,0.4-0.6,0.8-1,1.1c-1.3,1.5-2.8,2.6-4.3,3.7
					c-1.5,1-3,2-4.4,2.8c-2.9,1.8-5.6,3.4-8.1,5.4c-2.5,1.9-4.8,4-6.8,6.3c-2.1,2.2-3.9,4.6-5.6,7c-1.7,2.4-3.1,5-4.3,7.5
					c-0.3,0.6-0.6,1.3-0.9,1.9l-0.5,1.2c-0.2,0.6-0.5,1.2-0.7,1.9c-1,2.5-1.9,5.2-2.7,7.6c-0.9-2-1.8-4-2.7-5.9
					c-0.4-1-0.9-1.9-1.4-2.8l-0.6-1.1L45,83.2c-1-1.9-2.1-3.7-3.2-5.4c-2.2-3.4-4.6-6.5-7-9.3c-2.4-2.7-4.8-5.2-7.3-7.2
					c-2.4-2.1-4.7-3.8-6.9-5.3c-2.2-1.6-4.1-3-5.7-4.4c-1.6-1.4-2.8-2.8-3.5-4.1c-0.4-0.6-0.7-1.2-0.9-1.7c-0.3-0.5-0.4-1-0.5-1.3
					c-0.2-0.7-0.3-1.1-0.2-1.1s0.4,0.3,0.8,0.9c0.2,0.3,0.4,0.7,0.7,1.1c0.3,0.4,0.6,0.9,1.1,1.5c0.8,1.1,2.1,2.2,3.7,3.4
					c1.6,1.2,3.6,2.4,5.9,3.8c2.3,1.4,4.8,3.1,7.4,5.1c2.6,2,5.2,4.4,7.9,7.2c2.6,2.8,5.2,5.9,7.7,9.5c1.2,1.8,2.4,3.6,3.5,5.6
					l0.4,0.7l0.2,0.4l0.2,0.3c0.1,0.2,0.2,0.3,0.3,0.5c0.1-0.2,0.1-0.5,0.2-0.7l0.1-0.2l0.3-0.8c0.3-0.7,0.6-1.4,0.9-2.1
					c1.3-2.7,2.8-5.5,4.5-8.1c1.7-2.7,3.7-5.2,5.9-7.7c2.2-2.5,4.7-4.8,7.3-6.9c2.7-2.1,5.6-4,8.5-5.8c1.4-0.9,2.8-1.8,4.2-2.7
					c1.3-0.9,2.5-1.9,3.5-3C89,40.8,90.2,33.8,89.4,27.2z"/>
			</g>
		</g>
	</g>
</g>
<g id="Camada_10">
	<path fill="#ECE9E3" d="M72,41.2C72.4,55,63.4,64,62.1,65.3c-1.3,1.2-11.6,11-25.7,9.2C21.2,72.6,8.2,58.2,8.3,41.7
		c0-17,13.8-30.6,27.3-32.5c5.2-0.8,9.3,0.4,11.4,1C59.2,13.6,71.5,25.6,72,41.2z"/>
	<path fill="#D8D6D4" d="M59.1,60.9c-2.8-0.3-0.2-10.7-7-20.7C43.2,27,25.9,25.8,26.7,21.1c0.3-2,3.7-3.1,6.7-4
		c6.6-2,12.3-0.1,14.4,0.6c8.3,2.9,16.5,10.7,18.4,21C68,49.8,62.1,61.2,59.1,60.9z"/>
	<g>
		<g>
			<g>
				<path fill="#0C0C0C" d="M14.7,17.2c2.8-2.7,5.9-4.9,9.2-6.6c3.3-1.7,7-2.7,10.5-3.3C36.3,7,38.1,7,39.8,6.9
					c1.8,0.1,3.5,0.1,5.3,0.5c0.9,0.1,1.7,0.3,2.5,0.5c0.8,0.2,1.7,0.4,2.5,0.7c1.6,0.6,3.2,1.1,4.7,1.9c1.5,0.7,2.9,1.6,4.3,2.4
					c0.7,0.5,1.3,1,1.9,1.4l0.9,0.7c0.3,0.2,0.6,0.5,0.9,0.8c0.6,0.5,1.1,1.1,1.7,1.6c0.5,0.5,1,1.1,1.5,1.7c1,1.1,1.8,2.4,2.7,3.6
					c3.2,4.9,4.8,10.2,5.3,15.1c0.5,4.9-0.1,9.3-1.3,13c-1.2,3.7-2.7,6.6-4.3,8.7c-0.7,1.1-1.5,2-2.2,2.7c-0.3,0.4-0.7,0.7-1,1
					c-0.3,0.3-0.6,0.5-0.9,0.7c-1.1,0.9-1.7,1.2-1.9,1c-0.2-0.2,0.1-0.9,0.8-2c0.2-0.3,0.4-0.6,0.6-0.9c0.2-0.3,0.4-0.7,0.6-1.2
					c0.5-0.8,1-1.7,1.5-2.9c1.1-2.2,2.1-5,2.8-8.2c0.6-3.3,0.8-7.2,0.1-11.3c-0.7-4.1-2.3-8.4-5.2-12.3c-0.8-0.9-1.4-1.9-2.3-2.8
					c-0.4-0.4-0.8-0.9-1.3-1.3c-0.5-0.4-1-0.8-1.4-1.2c-0.2-0.2-0.5-0.4-0.7-0.6L57,19.6c-0.5-0.4-1-0.8-1.6-1.1
					c-1.1-0.6-2.3-1.3-3.5-1.8c-1.2-0.6-2.5-1-3.8-1.4c-0.7-0.2-1.3-0.3-2-0.5c-0.7-0.2-1.4-0.3-2-0.3c-1.4-0.2-2.8-0.2-4.2-0.3
					c-1.4,0.1-2.9,0.1-4.3,0.4c-2.8,0.5-5.7,1.3-8.3,2.7c-2.6,1.4-5.1,3.1-7.3,5.3c-2.1,2.2-3.9,4.7-5.3,7.3
					c-1.4,2.6-2.2,5.5-2.7,8.3c-0.3,1.4-0.3,2.9-0.4,4.3c0.1,1.4,0.1,2.8,0.3,4.2c0.1,0.7,0.2,1.4,0.3,2c0.2,0.7,0.3,1.3,0.5,2
					c0.4,1.3,0.8,2.6,1.4,3.8c0.5,1.3,1.2,2.4,1.8,3.5c0.3,0.6,0.7,1.1,1.1,1.6l0.6,0.8c0.2,0.3,0.4,0.5,0.6,0.7
					c0.4,0.5,0.8,1,1.2,1.4c0.4,0.5,0.9,0.9,1.3,1.3c0.9,0.9,1.9,1.6,2.8,2.3c3.9,2.9,8.2,4.4,12.3,5.2c4.1,0.7,8,0.5,11.3-0.1
					c3.3-0.7,6.1-1.6,8.2-2.8c1.1-0.5,2-1.1,2.9-1.5c0.4-0.2,0.8-0.4,1.2-0.6c0.3-0.2,0.6-0.4,0.9-0.6c1.1-0.7,1.8-1,2-0.8
					s-0.2,0.8-1,1.9c-0.2,0.3-0.5,0.6-0.7,0.9c-0.3,0.3-0.6,0.6-1,1c-0.7,0.7-1.6,1.5-2.7,2.2c-2.1,1.6-5.1,3.1-8.7,4.3
					c-3.7,1.1-8.1,1.8-13,1.3C30.4,76,25,74.4,20.1,71.2c-1.2-0.8-2.4-1.6-3.6-2.7c-0.6-0.5-1.2-1-1.7-1.5c-0.5-0.6-1.1-1.1-1.6-1.7
					c-0.3-0.3-0.5-0.6-0.8-0.9l-0.7-0.9c-0.5-0.6-1-1.3-1.4-1.9c-0.8-1.4-1.8-2.7-2.4-4.3c-0.8-1.5-1.3-3.1-1.9-4.7
					c-0.3-0.8-0.4-1.6-0.7-2.5c-0.2-0.8-0.4-1.7-0.5-2.5c-0.3-1.7-0.4-3.5-0.5-5.3c0.1-1.8,0.1-3.6,0.4-5.4
					c0.6-3.6,1.5-7.2,3.3-10.5C9.8,23.1,12,20,14.7,17.2z"/>
			</g>
		</g>
	</g>
	<g>
		<path fill="#FFFFFF" d="M95.3,92.5c-11-9.2-22-18.4-33-27.6"/>
		<g>
			<g>
				
					<ellipse transform="matrix(0.6421 -0.7666 0.7666 0.6421 -32.1407 88.5625)" fill="#0C0C0C" cx="78.8" cy="78.7" rx="3.7" ry="21.5"/>
			</g>
		</g>
	</g>
</g>
</svg>
