<svg xmlns="http://www.w3.org/2000/svg" xmlns:xlink="http://www.w3.org/1999/xlink" width="200" zoomAndPan="magnify" viewBox="0 0 150 149.999998" height="200" preserveAspectRatio="xMidYMid meet" version="1.0"><path fill="#8a9a9c" d="M 75 0 C 33.578125 0 0 33.578125 0 75 C 0 116.421875 33.578125 150 75 150 C 116.421875 150 150 116.421875 150 75 C 150 33.578125 116.421875 0 75 0 Z M 75 26.367188 C 85.84375 26.367188 94.636719 36.757812 94.636719 49.574219 C 94.636719 62.394531 85.84375 72.785156 75 72.785156 C 64.15625 72.785156 55.363281 62.394531 55.363281 49.574219 C 55.363281 36.757812 64.152344 26.367188 75 26.367188 Z M 108.238281 117.773438 L 41.757812 117.773438 C 38.425781 117.773438 35.722656 115.070312 35.722656 111.738281 C 35.722656 96.140625 53.308594 83.496094 75 83.496094 C 96.691406 83.496094 114.277344 96.140625 114.277344 111.738281 C 114.277344 115.070312 111.574219 117.773438 108.238281 117.773438 Z M 108.238281 117.773438 " fill-opacity="1" fill-rule="nonzero"/></svg>